<svg version="1.0" fill="white" xmlns="http://www.w3.org/2000/svg" width="800" height="800" viewBox="0 0 600 600"><path d="M142 139.7c-8.5 5.8-36.4 24.6-62 41.8s-50 33.7-54.3 36.6l-7.9 5.4 114.6.5 114.6.5 26.4 46.4 26.4 46.3 2.4-3.8c1.4-2.2 13.4-23.1 26.8-46.6l24.3-42.8 114.6-.2 114.6-.3-21.5-14.4c-11.8-8-30.3-20.4-41-27.6s-32.6-22-48.7-32.8L442.1 129l-51.3.2-51.2.3-19.6 34.2c-10.7 18.9-19.7 34.3-20 34.3s-9.3-15.4-20-34.3l-19.6-34.2-51.4-.2-51.5-.2z"/><path d="M146.9 324.8c-6.3 4.3-28 19-48.4 32.6-20.3 13.7-47.1 31.7-59.4 40l-22.4 15.1 114.6.3 114.5.2 26.8 47c14.8 25.9 27.1 47 27.4 47s12.6-21.2 27.3-47l26.9-47 114.5-.2 114.5-.3-20.8-14.1c-11.5-7.7-38.9-26.2-60.9-41-22-14.7-44.5-29.9-49.9-33.6l-10-6.8H341.1l-20.2 35.5C309.7 372 300.3 388 300 388s-9.7-16-20.9-35.5L258.9 317H158.3z"/></svg>